# xmcd
#
# Track frame offsets: 
#        150
#        21932
#        41212
#        59702
#        75555
#        96677
#        120332
#        140667
#        163880
#        181322
#        203207
#        223330
#        241795
#        259642
#        279122
#        297517
#        318032
#        339985
#
# Disc length: 4671 seconds
#
# Revision: 8
# Processed by: cddbd v1.5.2PL0 Copyright (c) Steve Scherf et al.
# Submitted via: ExactAudioCopy v0.99pb5
#
DISCID=13123d12
DTITLE=Mystikal - Let's Get Ready
DYEAR=2000
DGENRE=Rap
TTITLE0=Ready To Rumble
TTITLE1=Shake Ya Ass
TTITLE2=Jump
TTITLE3=Danger (Been So Long)
TTITLE4=Come See About Me
TTITLE5=Big Truck Boys
TTITLE6=I Rock, I Roll
TTITLE7=U Would If U Could
TTITLE8=Mystikal Fever
TTITLE9=Family
TTITLE10=Ain't Gonna See Tomorrow
TTITLE11=The Braids
TTITLE12=Smoked Out
TTITLE13=Murderer III
TTITLE14=Neck Uv Da Woods
TTITLE15=Throwed Off
TTITLE16=You Lookin' For Me
TTITLE17=Petey Pablo - Right Here
EXTD=YEAR: 2000
EXTT0=
EXTT1=
EXTT2=
EXTT3=
EXTT4=
EXTT5=
EXTT6=
EXTT7=
EXTT8=
EXTT9=
EXTT10=
EXTT11=
EXTT12=
EXTT13=
EXTT14=
EXTT15=
EXTT16=
EXTT17=
PLAYORDER=
